<?xml version="1.0" encoding="UTF-8" standalone="no"?>
<!-- Created with Inkscape (http://www.inkscape.org/) -->

<svg
   width="1000"
   height="1000"
   viewBox="0 0 264.58333 264.58333"
   version="1.1"
   id="svg5"
   inkscape:version="1.1.2 (b8e25be833, 2022-02-05)"
   sodipodi:docname="hawking-avatar.svg"
   inkscape:export-filename="H:\Apps\hawking\resources\hawking-avatar.png"
   inkscape:export-xdpi="96"
   inkscape:export-ydpi="96"
   xmlns:inkscape="http://www.inkscape.org/namespaces/inkscape"
   xmlns:sodipodi="http://sodipodi.sourceforge.net/DTD/sodipodi-0.dtd"
   xmlns:xlink="http://www.w3.org/1999/xlink"
   xmlns="http://www.w3.org/2000/svg"
   xmlns:svg="http://www.w3.org/2000/svg">
  <sodipodi:namedview
     id="namedview7"
     pagecolor="#505050"
     bordercolor="#eeeeee"
     borderopacity="1"
     inkscape:pageshadow="0"
     inkscape:pageopacity="0"
     inkscape:pagecheckerboard="true"
     inkscape:document-units="px"
     showgrid="false"
     units="px"
     inkscape:snap-bbox="true"
     inkscape:bbox-nodes="true"
     inkscape:snap-bbox-edge-midpoints="true"
     inkscape:snap-bbox-midpoints="true"
     inkscape:bbox-paths="true"
     inkscape:zoom="1"
     inkscape:cx="501.5"
     inkscape:cy="532"
     inkscape:window-width="2498"
     inkscape:window-height="1417"
     inkscape:window-x="54"
     inkscape:window-y="-8"
     inkscape:window-maximized="1"
     inkscape:current-layer="layer4" />
  <defs
     id="defs2">
    <linearGradient
       inkscape:collect="always"
       id="linearGradient67552">
      <stop
         style="stop-color:#003ce7;stop-opacity:1"
         offset="0"
         id="stop67548" />
      <stop
         style="stop-color:#00aaff;stop-opacity:1"
         offset="1"
         id="stop67550" />
    </linearGradient>
    <inkscape:path-effect
       effect="powerstroke"
       id="path-effect65446"
       is_visible="true"
       lpeversion="1"
       offset_points="0.1,0.25 | 13.463724,2.5 | 17.91115,2.5 | 18.88936,1 | 8.7816082,2.5 | 8.0005643,1 | 26.8,0.25"
       not_jump="false"
       sort_points="true"
       interpolator_type="CentripetalCatmullRom"
       interpolator_beta="0.2"
       start_linecap_type="zerowidth"
       linejoin_type="round"
       miter_limit="4"
       scale_width="1"
       end_linecap_type="zerowidth" />
    <inkscape:path-effect
       effect="powerstroke"
       id="path-effect64217"
       is_visible="true"
       lpeversion="1"
       offset_points="0.1,0.25 | 13.463724,2.5 | 17.91115,2.5 | 18.88936,1 | 8.7816082,2.5 | 8.0005643,1 | 26.8,0.25"
       not_jump="false"
       sort_points="true"
       interpolator_type="CentripetalCatmullRom"
       interpolator_beta="0.2"
       start_linecap_type="zerowidth"
       linejoin_type="round"
       miter_limit="4"
       scale_width="1"
       end_linecap_type="zerowidth" />
    <inkscape:path-effect
       effect="bspline"
       id="path-effect43502"
       is_visible="true"
       lpeversion="1"
       weight="33.333333"
       steps="2"
       helper_size="0"
       apply_no_weight="true"
       apply_with_weight="true"
       only_selected="false" />
    <inkscape:path-effect
       effect="bspline"
       id="path-effect41377"
       is_visible="true"
       lpeversion="1"
       weight="33.333333"
       steps="2"
       helper_size="0"
       apply_no_weight="true"
       apply_with_weight="true"
       only_selected="false" />
    <rect
       x="-411.46197"
       y="-455.1798"
       width="1998.1622"
       height="2072.7397"
       id="rect33011" />
    <rect
       x="1.2858187"
       y="-1.2858187"
       width="996.50946"
       height="999.08109"
       id="rect5845" />
    <clipPath
       clipPathUnits="userSpaceOnUse"
       id="clipPath38827">
      <path
         d="M 0,1024 H 1024 V 0 H 0 Z"
         id="path38825" />
    </clipPath>
    <clipPath
       clipPathUnits="userSpaceOnUse"
       id="clipPath38837">
      <path
         d="M 0,1024 H 1024 V 0 H 0 Z"
         id="path38835" />
    </clipPath>
    <clipPath
       clipPathUnits="userSpaceOnUse"
       id="clipPath38845">
      <path
         d="M 289.599,781.601 H 734.4 V 242.398 H 289.599 Z"
         id="path38843" />
    </clipPath>
    <clipPath
       clipPathUnits="userSpaceOnUse"
       id="clipPath38861">
      <path
         d="M 0,1024 H 1024 V 0 H 0 Z"
         id="path38859" />
    </clipPath>
    <pattern
       patternUnits="userSpaceOnUse"
       width="0.99999872"
       height="526.56542"
       patternTransform="translate(282.30739,236.71581)"
       id="pattern39627">
      <path
         style="fill:none;stroke:#000000;stroke-width:0.999999px;stroke-linecap:butt;stroke-linejoin:miter;stroke-opacity:1"
         d="M 0.49999936,526.56542 V 0"
         id="path39461" />
    </pattern>
    <pattern
       patternUnits="userSpaceOnUse"
       width="0.99999872"
       height="526.56542"
       patternTransform="translate(282.30739,236.71581)"
       id="pattern39627-2">
      <path
         style="fill:none;stroke:#000000;stroke-width:0.999999px;stroke-linecap:butt;stroke-linejoin:miter;stroke-opacity:1"
         d="M 0.49999936,526.56542 V 0"
         id="path39461-7" />
    </pattern>
    <pattern
       patternUnits="userSpaceOnUse"
       width="0.99999872"
       height="526.56542"
       patternTransform="translate(282.30739,236.71581)"
       id="pattern39627-6">
      <path
         style="fill:none;stroke:#000000;stroke-width:0.999999px;stroke-linecap:butt;stroke-linejoin:miter;stroke-opacity:1"
         d="M 0.49999936,526.56542 V 0"
         id="path39461-6" />
    </pattern>
    <filter
       style="color-interpolation-filters:sRGB;"
       inkscape:label="Drop Shadow"
       id="filter66688"
       x="-0.03020036"
       y="-0.0579324"
       width="1.0604007"
       height="1.1158648">
      <feFlood
         flood-opacity="0.615686"
         flood-color="rgb(255,255,255)"
         result="flood"
         id="feFlood66678" />
      <feComposite
         in="flood"
         in2="SourceGraphic"
         operator="in"
         result="composite1"
         id="feComposite66680" />
      <feGaussianBlur
         in="composite1"
         stdDeviation="3.5"
         result="blur"
         id="feGaussianBlur66682" />
      <feOffset
         dx="0"
         dy="0"
         result="offset"
         id="feOffset66684" />
      <feComposite
         in="SourceGraphic"
         in2="offset"
         operator="over"
         result="composite2"
         id="feComposite66686" />
    </filter>
    <linearGradient
       inkscape:collect="always"
       xlink:href="#linearGradient67552"
       id="linearGradient67680"
       gradientUnits="userSpaceOnUse"
       x1="0"
       y1="264.58334"
       x2="264.58334"
       y2="0" />
  </defs>
  <g
     inkscape:groupmode="layer"
     id="layer4"
     inkscape:label="background"
     sodipodi:insensitive="true">
    <rect
       style="fill:url(#linearGradient67680);fill-opacity:1;stroke:none;stroke-width:0;stroke-linecap:round;stroke-linejoin:round;stroke-miterlimit:4;stroke-dasharray:none;stroke-opacity:0.995984"
       id="rect66858"
       width="264.58334"
       height="264.58334"
       x="0"
       y="0"
       inkscape:transform-center-x="-6.7351901"
       inkscape:transform-center-y="-1.122529" />
  </g>
  <g
     inkscape:groupmode="layer"
     id="layer3"
     inkscape:label="waveform"
     style="display:inline;mix-blend-mode:normal"
     sodipodi:insensitive="true">
    <path
       style="fill:#ffffff;stroke-width:0.264583px;filter:url(#filter66688)"
       d="m -6.988559,133.80694 c 0.02869,0.0168 0.1522991,0.0955 0.3682328,-0.12529 0.1473569,-0.15067 0.3320069,-0.40797 0.8413559,-1.10783 0.4112683,-0.5651 1.3255391,-1.82379 2.4167914,-3.06875 0.860803,-0.98205 2.0062259,-2.1599 3.2617687,-3.04197 0.55928819,-0.39292 1.1475993,-0.73225 1.745847,-0.96673 0.5614962,-0.22007 1.1298547,-0.34708 1.6910162,-0.34046 0.2584704,0.003 0.5032484,0.0398 0.7371979,0.10746 0.2284171,0.0661 0.4493572,0.16261 0.6649613,0.28934 0.4189079,0.24624 0.8166275,0.60596 1.2065206,1.07546 0.3752647,0.45188 0.7300505,0.98908 1.0850265,1.59719 0.3448726,0.59081 0.6718581,1.21649 1.0191461,1.88113 0.329459,0.63052 0.6776703,1.29702 1.0422651,1.91893 0.3564231,0.60798 0.7447745,1.2021 1.1789915,1.71994 0.423918,0.50555 0.904918,0.95475 1.4632,1.27566 0.275461,0.15835 0.56997,0.2856 0.885435,0.37271 0.312381,0.0863 0.642115,0.13226 0.990308,0.13172 0.345019,-5.4e-4 0.674773,-0.047 0.989946,-0.1355 0.312014,-0.0876 0.605875,-0.21547 0.883291,-0.37684 0.546538,-0.31791 1.025067,-0.76348 1.456473,-1.28309 0.424591,-0.5114 0.809078,-1.10125 1.172433,-1.72675 0.358721,-0.61752 0.698014,-1.2718 1.03699,-1.92558 0.334287,-0.64474 0.667708,-1.28789 1.015689,-1.88712 0.344544,-0.59332 0.700955,-1.13938 1.08471,-1.6019 0.3799,-0.45788 0.779558,-0.82531 1.212392,-1.07738 0.214255,-0.12478 0.437208,-0.22165 0.671321,-0.28754 0.232908,-0.0656 0.480254,-0.1014 0.745366,-0.1019 0.2633,-4.9e-4 0.510355,0.034 0.744311,0.0988 0.23324,0.0646 0.456588,0.16023 0.672369,0.28477 0.430782,0.24863 0.831914,0.61284 1.216742,1.07407 0.382448,0.45838 0.739456,1.00117 1.088302,1.59916 0.347343,0.59541 0.678699,1.23159 1.017612,1.88265 0.334883,0.64331 0.676879,1.30063 1.036727,1.91783 0.358943,0.61564 0.742559,1.20361 1.167604,1.71367 0.423972,0.50878 0.897108,0.94976 1.439452,1.26365 0.27141,0.15708 0.559755,0.28209 0.866894,0.36761 0.307092,0.0855 0.629912,0.13069 0.969555,0.1305 0.339713,-1.8e-4 0.662542,-0.0457 0.969568,-0.13162 0.306764,-0.0858 0.59472,-0.21106 0.865752,-0.36836 0.540804,-0.31388 1.012811,-0.75452 1.43623,-1.2636 0.423716,-0.50945 0.806493,-1.09689 1.165318,-1.71324 0.359164,-0.61694 0.700458,-1.2737 1.03578,-1.91863 0.338215,-0.65049 0.670201,-1.28865 1.018135,-1.88582 0.348836,-0.59871 0.707082,-1.14451 1.091802,-1.60641 0.38628,-0.46378 0.791182,-0.8331 1.22848,-1.08633 0.218805,-0.1267 0.445924,-0.22446 0.68367,-0.29069 0.23824,-0.0664 0.48996,-0.10186 0.758204,-0.10168 0.268307,1.8e-4 0.519253,0.0361 0.755984,0.10239 0.237662,0.0665 0.46396,0.16448 0.681268,0.29067 0.43807,0.25437 0.8413,0.62456 1.223357,1.08439 0.384956,0.46331 0.741886,1.00968 1.086484,1.60293 0.347225,0.59778 0.679376,1.23868 1.01261,1.88202 0.336657,0.64994 0.673948,1.30145 1.030016,1.91574 0.359649,0.62047 0.740046,1.20577 1.159722,1.71295 0.424914,0.5135 0.895597,0.95364 1.432623,1.26787 0.271828,0.15905 0.55986,0.28536 0.865933,0.37233 0.308539,0.0877 0.632015,0.13443 0.971345,0.13612 0.343045,0.002 0.668298,-0.0427 0.976956,-0.12714 0.311029,-0.0851 0.60221,-0.21016 0.875437,-0.36659 0.552024,-0.31606 1.031072,-0.76051 1.456757,-1.26553 0.433732,-0.51457 0.823872,-1.10639 1.184774,-1.71612 0.367153,-0.62029 0.71852,-1.28443 1.05422,-1.91731 0.350001,-0.65984 0.683672,-1.28705 1.034461,-1.87541 0.358797,-0.60178 0.719091,-1.13444 1.100151,-1.57928 0.392358,-0.45803 0.791566,-0.8048 1.209624,-1.03537 0.213094,-0.11752 0.430607,-0.2046 0.654689,-0.2612 0.227878,-0.0576 0.466166,-0.0845 0.717939,-0.0781 0.251783,0.007 0.48454,0.0472 0.701839,0.11471 0.222028,0.069 0.432499,0.16743 0.633792,0.29123 0.417439,0.25674 0.80036,0.6257 1.159113,1.07247 0.37663,0.46903 0.722324,1.01859 1.046145,1.59672 0.340816,0.60847 0.666687,1.26594 0.972955,1.8907 0.339039,0.69162 0.646369,1.32681 0.977099,1.94814 0.355754,0.66834 0.711489,1.26779 1.094665,1.79003 0.429329,0.58515 0.888824,1.06693 1.405685,1.42505 0.289628,0.20067 0.592063,0.3588 0.908345,0.4735 0.349794,0.12685 0.703696,0.1959 1.057468,0.21662 0.0079,2.1e-4 0.01572,3.6e-4 0.02358,4.7e-4 0.214778,0.003 0.421656,-0.031 0.616631,-0.0946 0.206012,-0.0671 0.391251,-0.16466 0.555537,-0.2773 0.335376,-0.22995 0.607089,-0.53896 0.827577,-0.85431 0.236325,-0.33801 0.443995,-0.72695 0.628227,-1.13545 0.196403,-0.4355 0.376016,-0.91531 0.540901,-1.41796 0.359821,-1.0969 0.672016,-2.37212 0.943114,-3.67585 0.308826,-1.48517 0.582614,-3.09661 0.823191,-4.68472 0.557047,-3.67721 1.038284,-7.91915 1.420733,-11.6437 0.42896,-4.1775 0.823056,-8.57565 1.21863,-13.30237 0.457142,-5.462381 0.63375,-7.803263 1.090891,-13.265645 0.303498,-3.575228 0.686303,-7.847833 1.125918,-11.493966 0.0988,-0.819406 0.202877,-1.628369 0.312466,-2.410747 0.102592,-0.732416 0.209421,-1.436095 0.320815,-2.101453 0.21643,-1.292731 0.447068,-2.422095 0.691145,-3.326055 0.11674,-0.43236 0.231821,-0.795273 0.342405,-1.087218 0.109279,-0.288499 0.202332,-0.47519 0.262626,-0.568251 0.02249,-0.03472 0.04565,-0.06054 0.02933,-0.03166 -0.01068,0.0189 -0.05336,0.08011 -0.144036,0.162205 -0.09167,0.08299 -0.23992,0.194265 -0.456102,0.288028 -0.221402,0.09603 -0.485616,0.159984 -0.775287,0.162533 -0.305184,9.19e-4 -0.587877,-0.05831 -0.833732,-0.152712 -0.238902,-0.09173 -0.422408,-0.208427 -0.552555,-0.308991 -0.128233,-0.09909 -0.216739,-0.19176 -0.270332,-0.253442 -0.05345,-0.06152 -0.08687,-0.109375 -0.09999,-0.128094 -0.02574,-0.03671 -0.01015,-0.01204 0.02745,0.08773 0.03676,0.09756 0.08436,0.237868 0.140847,0.435232 0.112113,0.391727 0.234995,0.923149 0.364045,1.618269 0.125713,0.677151 0.25147,1.477964 0.376496,2.406768 0.244262,1.8146 0.478445,4.062937 0.70333,6.735071 0.217873,2.588811 0.42457,5.545813 0.622554,8.846758 0.381657,6.363293 0.722507,13.859569 1.049193,22.258375 0.31359,8.06212 0.600055,16.57735 0.900752,25.56726 0.282841,8.45603 0.578925,17.35232 0.895124,25.59659 0.30741,8.01507 0.645235,15.72644 1.035338,22.37525 0.190986,3.2551 0.395864,6.27963 0.617982,8.98085 0.218704,2.65968 0.456122,5.03078 0.717059,7.01272 0.129284,0.98197 0.266124,1.88216 0.412008,2.68351 0.143886,0.79037 0.302613,1.51843 0.481962,2.15068 0.08973,0.31631 0.190319,0.62898 0.304893,0.92605 0.111911,0.29017 0.253491,0.60834 0.436198,0.91801 0.09277,0.15724 0.205901,0.32898 0.343457,0.50215 0.136435,0.17175 0.312233,0.36431 0.534486,0.54909 0.225228,0.18726 0.510156,0.37749 0.866841,0.52456 0.363361,0.14982 0.775872,0.24275 1.219986,0.24339 0.514784,8e-4 0.997965,-0.10862 1.429869,-0.29261 0.422196,-0.17985 0.767073,-0.41728 1.047472,-0.6612 0.276127,-0.24019 0.502536,-0.49872 0.687567,-0.7449 0.185495,-0.2468 0.345192,-0.50227 0.483643,-0.75262 0.272713,-0.49312 0.500885,-1.03546 0.697051,-1.58785 0.197327,-0.55566 0.377517,-1.16502 0.544107,-1.81365 0.32987,-1.28437 0.62617,-2.80076 0.89717,-4.49401 0.26928,-1.68251 0.51824,-3.56941 0.75095,-5.62064 0.45953,-4.05054 0.85873,-8.7689 1.22491,-13.86491 0.36102,-5.0244 0.68707,-10.37415 1.00783,-15.79463 0.31409,-5.30787 0.62505,-10.71841 0.94935,-15.74263 0.32179,-4.9855 0.66123,-9.66296 1.04145,-13.65842 0.18877,-1.9836 0.38695,-3.79259 0.59714,-5.38627 0.20985,-1.59113 0.42805,-2.93961 0.65435,-4.01927 0.1125,-0.53675 0.22316,-0.98846 0.33015,-1.35891 0.1088,-0.37672 0.20176,-0.62728 0.27011,-0.78098 0.0313,-0.0704 0.0525,-0.10687 0.0478,-0.10063 -0.005,0.006 -0.0342,0.0566 -0.12597,0.15252 -0.0856,0.0894 -0.25459,0.24471 -0.52026,0.38091 -0.28038,0.14374 -0.64251,0.2517 -1.05746,0.24932 -0.14226,-0.002 -0.28162,-0.0278 -0.40678,-0.0718 -0.1219,-0.0428 -0.20585,-0.0942 -0.25151,-0.12787 -0.0896,-0.066 -0.02,-0.0369 0.10176,0.1386 0.12793,0.18431 0.28839,0.47209 0.46887,0.8885 0.17786,0.41035 0.35802,0.90548 0.53922,1.48576 0.36302,1.16256 0.69942,2.56632 1.0279,4.14562 0.32666,1.57059 0.63296,3.25224 0.94799,4.98109 0.31151,1.70951 0.63112,3.46262 0.97559,5.11253 0.34344,1.64504 0.72298,3.24405 1.16511,4.65202 0.22191,0.70669 0.46687,1.38886 0.74154,2.0198 0.27261,0.62618 0.59253,1.24391 0.97642,1.8004 0.37964,0.55035 0.87603,1.12002 1.52794,1.56083 0.33254,0.22486 0.7099,0.41895 1.13178,0.55465 0.42493,0.13667 0.87097,0.20621 1.32803,0.20136 0.46114,-0.005 0.90431,-0.087 1.3197,-0.23242 0.41084,-0.14384 0.77754,-0.34408 1.09615,-0.56874 0.62503,-0.44074 1.10523,-1.0014 1.47605,-1.54075 0.37698,-0.54831 0.69734,-1.15755 0.97471,-1.77738 0.28022,-0.62617 0.53455,-1.30386 0.76815,-2.00637 0.46739,-1.40557 0.88173,-3.00215 1.26177,-4.6398 0.38319,-1.65121 0.74562,-3.40694 1.09564,-5.11047 0.35708,-1.73794 0.70036,-3.41705 1.05841,-4.99243 0.36164,-1.59115 0.72317,-3.00744 1.10145,-4.18853 0.18984,-0.59274 0.37686,-1.10386 0.5607,-1.53345 0.18707,-0.43717 0.35475,-0.75187 0.49515,-0.96778 0.13537,-0.20817 0.22831,-0.27685 0.16975,-0.23633 -0.0292,0.0202 -0.099,0.0647 -0.20983,0.10387 -0.11522,0.0407 -0.25178,0.0673 -0.39846,0.0672 -0.15685,-8e-5 -0.30184,-0.0293 -0.42295,-0.0737 -0.11729,-0.043 -0.19045,-0.0919 -0.22071,-0.11516 -0.0618,-0.0475 0.0358,0.0205 0.17314,0.22609 0.14463,0.2166 0.31592,0.53348 0.50499,0.96793 0.18864,0.43348 0.37919,0.94723 0.57077,1.53631 0.38988,1.19886 0.75888,2.63138 1.11716,4.19548 0.25787,1.12575 0.50801,2.30993 0.75389,3.50592 0.1013,0.49271 0.20216,0.98878 0.30374,1.48954 0.34269,1.68942 0.69769,3.45428 1.06341,5.1006 0.36066,1.62351 0.74864,3.21032 1.17745,4.60188 0.21302,0.69129 0.4429,1.35679 0.69362,1.96973 0.24691,0.60361 0.53049,1.19701 0.8625,1.73039 0.16691,0.26815 0.35531,0.53614 0.56904,0.79008 0.21253,0.25253 0.46289,0.50641 0.75716,0.73497 0.29489,0.22904 0.64525,0.44136 1.05344,0.59475 0.41263,0.15506 0.86129,0.24091 1.33221,0.2353 0.438,-0.005 0.86345,-0.0789 1.26809,-0.21358 0.40129,-0.13354 0.76273,-0.32042 1.08426,-0.53711 0.63037,-0.42483 1.12135,-0.97319 1.50609,-1.51728 0.38664,-0.54677 0.71317,-1.15643 0.99465,-1.78137 0.28226,-0.62668 0.53567,-1.30573 0.76651,-2.01261 0.45775,-1.40177 0.85284,-2.99446 1.21106,-4.64534 0.35713,-1.64588 0.6859,-3.38913 1.00572,-5.10731 0.31988,-1.71855 0.62973,-3.40591 0.95468,-4.9815 0.32464,-1.57405 0.65468,-2.98797 1.00834,-4.16526 0.17577,-0.58509 0.35076,-1.08933 0.52435,-1.51091 0.17553,-0.42627 0.33351,-0.7283 0.4632,-0.92717 0.12335,-0.18915 0.20321,-0.23291 0.11761,-0.16514 -0.0429,0.0339 -0.12854,0.0911 -0.25822,0.14 -0.13368,0.0504 -0.28757,0.0818 -0.44917,0.084 -0.10179,0.002 -0.20215,-0.0126 -0.29197,-0.0389 -0.0875,-0.0257 -0.14455,-0.0563 -0.17027,-0.071 -0.0498,-0.0285 0.0359,0.0275 0.17227,0.21764 0.14274,0.199 0.3161,0.49453 0.51025,0.91322 0.1921,0.41428 0.38683,0.9106 0.58278,1.48918 0.39437,1.16442 0.76192,2.56679 1.11634,4.13408 0.35424,1.5665 0.68483,3.24985 1.01203,4.96115 0.32668,1.70864 0.65103,3.45085 0.98533,5.0848 0.33576,1.64104 0.69137,3.22245 1.08685,4.60839 0.19937,0.69872 0.41507,1.36985 0.65201,1.98856 0.23557,0.61516 0.50883,1.22276 0.83376,1.77275 0.16471,0.2788 0.35254,0.55961 0.5681,0.8276 0.21542,0.26782 0.47248,0.54022 0.77873,0.78773 0.30868,0.24947 0.67948,0.4833 1.11586,0.65404 0.44385,0.17367 0.92705,0.27054 1.43363,0.26786 0.49753,-0.003 0.96262,-0.11348 1.37635,-0.29499 0.40599,-0.17811 0.73472,-0.41084 1.00024,-0.64769 0.26238,-0.23404 0.47576,-0.48452 0.64867,-0.72088 0.17414,-0.23804 0.32294,-0.48334 0.45099,-0.72208 0.25366,-0.47294 0.46313,-0.99023 0.64105,-1.51177 0.18057,-0.52929 0.34355,-1.1073 0.49262,-1.71828 0.29865,-1.22414 0.56091,-2.66168 0.79604,-4.24635 0.23745,-1.60032 0.45226,-3.38535 0.6493,-5.30406 0.39761,-3.87162 0.72992,-8.35771 1.02777,-13.07457 0.30171,-4.77789 0.57415,-9.8943 0.8407,-14.88728 0.2739,-5.130619 0.5414,-10.127507 0.84036,-14.830886 0.30414,-4.785055 0.63348,-9.144325 1.01801,-12.851355 0.19503,-1.880107 0.40217,-3.571754 0.62401,-5.051048 0.22532,-1.502456 0.46058,-2.750242 0.70375,-3.736288 0.12231,-0.495916 0.24157,-0.904898 0.35499,-1.233935 0.11635,-0.337567 0.21227,-0.549142 0.27623,-0.667961 0.029,-0.05395 0.0453,-0.07541 0.0338,-0.06057 -0.008,0.01076 -0.0549,0.07084 -0.14574,0.149735 -0.0947,0.08228 -0.24882,0.195423 -0.47266,0.290981 -0.23286,0.09941 -0.50994,0.165095 -0.81268,0.166164 -0.29444,0.0013 -0.57063,-0.0514 -0.81571,-0.139012 -0.24085,-0.0861 -0.4303,-0.198065 -0.56938,-0.299475 -0.26354,-0.192174 -0.38824,-0.376485 -0.41298,-0.414108 -0.0314,-0.04767 -0.022,-0.04555 0.0185,0.04614 0.0378,0.08567 0.0886,0.217564 0.14866,0.404756 0.12201,0.380458 0.25493,0.903347 0.39258,1.581016 0.1375,0.676912 0.27283,1.473702 0.40516,2.385439 0.26812,1.847314 0.51594,4.110612 0.74567,6.71101 0.23339,2.641725 0.4468,5.615955 0.64394,8.832785 0.40472,6.603846 0.74373,14.278983 1.04553,22.241443 0.31243,8.24274 0.59794,17.15614 0.86828,25.55662 0.29144,9.05577 0.56589,17.53592 0.87448,25.58866 0.325,8.4809 0.66983,15.99158 1.06768,22.36757 0.20877,3.34559 0.43001,6.34352 0.66722,8.97553 0.24676,2.73792 0.5106,5.07795 0.79579,7.00318 0.14743,0.99526 0.30179,1.88806 0.46449,2.67399 0.0259,0.1253 0.0521,0.24811 0.0786,0.36841 0.14419,0.65533 0.29841,1.24488 0.4664,1.76177 0.1026,0.31571 0.21515,0.61925 0.34058,0.90318 0.12625,0.2858 0.27969,0.58406 0.46998,0.86688 0.18825,0.27978 0.46472,0.6228 0.85911,0.91091 0.20717,0.15134 0.45839,0.29589 0.75443,0.40198 0.30365,0.10882 0.63417,0.16967 0.97979,0.16658 0.43107,-0.006 0.83256,-0.10053 1.19002,-0.2538 0.35938,-0.15408 0.65227,-0.3567 0.88989,-0.56474 0.24014,-0.21025 0.43488,-0.43649 0.59232,-0.65053 0.16193,-0.22015 0.29887,-0.44716 0.41552,-0.66687 0.23839,-0.44902 0.42951,-0.93897 0.58695,-1.41944 0.16714,-0.51004 0.31311,-1.06145 0.44219,-1.6276 0.275,-1.20627 0.50026,-2.59968 0.68864,-4.03903 0.20606,-1.57455 0.37976,-3.29562 0.52872,-5.05461 0.31989,-3.77748 0.55769,-8.11572 0.758,-12.47265 0.20623,-4.48582 0.37563,-9.03162 0.58353,-14.2142 0.17162,-4.27842 0.38506,-9.38107 0.6533,-14.17927 0.22556,-4.03472 0.52163,-8.44857 0.92388,-12.33286 0.1779,-1.71786 0.3818,-3.38423 0.61708,-4.89501 0.21682,-1.3922 0.4624,-2.66415 0.73903,-3.71663 0.0605,-0.23027 0.12239,-0.44953 0.18558,-0.65691 0.0728,-0.23879 0.1471,-0.46123 0.22289,-0.66603 0.13667,-0.36927 0.27306,-0.66747 0.40585,-0.89655 0.13054,-0.2252 0.23526,-0.34512 0.30414,-0.4082 0.03,-0.0275 0.0454,-0.0374 0.0461,-0.0414 7.2e-4,-0.004 -0.0127,-0.004 -0.0212,-0.007 0.18497,-0.0132 0.3665,-8.2e-4 0.54784,0.0402 0.17149,0.0388 0.34852,0.1044 0.53279,0.20411 0.34654,0.18751 0.70929,0.49033 1.09545,0.93923 0.35616,0.41402 0.7068,0.92184 1.07484,1.52729 0.34813,0.5727 0.6793,1.17734 1.04839,1.85027 0.33658,0.61367 0.70515,1.28486 1.08933,1.9099 0.36912,0.60054 0.77732,1.20001 1.23384,1.72494 0.43839,0.50407 0.93966,0.96105 1.5212,1.28775 0.28411,0.15961 0.58813,0.28856 0.91361,0.37639 0.32026,0.0864 0.65772,0.13204 1.01313,0.12968 0.35353,-0.002 0.6921,-0.0515 1.01608,-0.14445 0.31886,-0.0915 0.61891,-0.22393 0.90187,-0.39077 0.55299,-0.32607 1.03559,-0.78027 1.47016,-1.30965 0.42382,-0.51627 0.80757,-1.11089 1.1714,-1.74376 0.35666,-0.62037 0.69338,-1.27596 1.03275,-1.93642 0.33104,-0.64426 0.66409,-1.29213 1.01137,-1.89467 0.34187,-0.59316 0.69722,-1.14192 1.08076,-1.60721 0.37736,-0.45778 0.77582,-0.82721 1.20868,-1.08106 0.21336,-0.12513 0.43582,-0.22265 0.6699,-0.28914 0.23221,-0.066 0.47937,-0.10241 0.74488,-0.10326 0.26262,-8.5e-4 0.50949,0.0331 0.7437,0.0977 0.23288,0.0642 0.4563,0.15957 0.67252,0.28421 0.43012,0.24796 0.83163,0.61187 1.21776,1.07511 0.38192,0.4582 0.73877,1.0013 1.08833,1.60198 0.3467,0.59576 0.67692,1.23161 1.01633,1.88585 0.33319,0.64222 0.67513,1.30196 1.03454,1.92067 0.35722,0.61495 0.74005,1.20423 1.16485,1.71572 0.42201,0.50813 0.89405,0.95006 1.43623,1.26486 0.27056,0.15709 0.55833,0.28236 0.86522,0.36819 0.30626,0.0856 0.62861,0.13117 0.96823,0.13129 0.33941,1.5e-4 0.66228,-0.045 0.96967,-0.13079 0.30652,-0.0855 0.59458,-0.21053 0.86602,-0.36794 0.54016,-0.31324 1.01256,-0.75355 1.43743,-1.2645 0.42356,-0.50936 0.8067,-1.09724 1.16692,-1.71636 0.35937,-0.61767 0.70052,-1.27459 1.0374,-1.92305 0.33778,-0.65018 0.67096,-1.29127 1.01985,-1.89057 0.34863,-0.59888 0.70764,-1.14666 1.0937,-1.6105 0.38613,-0.46393 0.79172,-0.83461 1.23055,-1.08883 0.21891,-0.12682 0.44636,-0.22482 0.68469,-0.29121 0.23832,-0.0664 0.49039,-0.10199 0.75932,-0.10177 0.26892,2.3e-4 0.52068,0.0363 0.7584,0.10291 0.23814,0.0667 0.46513,0.16502 0.68334,0.29185 0.4385,0.25485 0.84296,0.62591 1.22719,1.0887 0.38545,0.46425 0.74342,1.0121 1.09021,1.60932 0.34806,0.5994 0.68071,1.24116 1.01658,1.88927 0.33676,0.64985 0.67638,1.30532 1.03458,1.92235 0.36017,0.62042 0.74249,1.20793 1.16491,1.71696 0.42533,0.51253 0.89752,0.9531 1.43689,1.26683 0.27181,0.1581 0.56002,0.28359 0.86647,0.36961 0.30793,0.0864 0.63106,0.13211 0.97041,0.13256 0.34037,4.2e-4 0.66317,-0.0447 0.96961,-0.12984 0.30774,-0.0855 0.59606,-0.21044 0.86687,-0.36694 0.54436,-0.3146 1.01759,-0.75639 1.43962,-1.26223 0.42674,-0.51147 0.81092,-1.10042 1.16819,-1.71245 0.36094,-0.61831 0.70476,-1.27852 1.03752,-1.91714 0.34167,-0.6557 0.67173,-1.28874 1.01848,-1.88293 0.35124,-0.60188 0.70833,-1.14392 1.08968,-1.60126 0.38777,-0.46505 0.79017,-0.8297 1.22082,-1.07888 0.2176,-0.12591 0.4424,-0.22234 0.67667,-0.28757 0.23647,-0.0658 0.48546,-0.10073 0.74998,-0.10061 0.26675,1.2e-4 0.51513,0.0361 0.74848,0.10166 0.23618,0.0664 0.46041,0.16403 0.67518,0.28919 0.43843,0.2555 0.84016,0.62732 1.21846,1.08359 0.38785,0.46782 0.74601,1.01831 1.08795,1.60685 0.35027,0.60286 0.68757,1.25298 1.01745,1.88771 0.34485,0.66352 0.68073,1.30856 1.03736,1.91945 0.36844,0.63112 0.75105,1.21157 1.16931,1.71054 0.43625,0.52041 0.91154,0.95167 1.44289,1.25331 0.27591,0.15663 0.56509,0.27736 0.86889,0.35802 0.31213,0.0829 0.63545,0.12229 0.97026,0.11711 0.68142,-0.0106 1.33568,-0.21023 1.9391,-0.50659 0.64667,-0.3176 1.25756,-0.75736 1.8132,-1.23816 1.26287,-1.09275 2.36844,-2.50953 3.15232,-3.62767 1.09031,-1.55523 1.86322,-2.96504 2.19011,-3.59639 0.1141,-0.22039 0.20462,-0.40448 0.27425,-0.55285 0.50739,-1.0812 0.35791,-1.17586 0.33722,-1.18594 -0.0426,-0.0208 -0.15168,-0.0527 -0.77642,0.94697 -0.0891,0.14263 -0.18826,0.30471 -0.31928,0.51913 -0.32587,0.53334 -1.22342,2.02387 -2.27369,3.463 -0.79285,1.0864 -1.87811,2.43432 -3.08154,3.45329 -0.52857,0.44756 -1.08793,0.83851 -1.65918,1.1126 -0.53284,0.25567 -1.07247,0.40802 -1.60584,0.41223 -0.26315,0.002 -0.51265,-0.0306 -0.75119,-0.0957 -0.23238,-0.0634 -0.45685,-0.15822 -0.67554,-0.28406 -0.42363,-0.2438 -0.82441,-0.60341 -1.21603,-1.07411 -0.37583,-0.45172 -0.73056,-0.9901 -1.08501,-1.60038 -0.34353,-0.59148 -0.6691,-1.21893 -1.01467,-1.88596 -0.32708,-0.63132 -0.67297,-1.29984 -1.03462,-1.92318 -0.35306,-0.60853 -0.73732,-1.20288 -1.16645,-1.7205 -0.4183,-0.50454 -0.89189,-0.95186 -1.44065,-1.27123 -0.27046,-0.15739 -0.55958,-0.28394 -0.86934,-0.37069 -0.30653,-0.0858 -0.63048,-0.13193 -0.97309,-0.13172 -0.33914,2e-4 -0.6632,0.0455 -0.97299,0.1322 -0.30653,0.0858 -0.59562,0.21118 -0.86898,0.36991 -0.53828,0.31255 -1.01144,0.7519 -1.43982,1.26737 -0.42118,0.50681 -0.80339,1.09241 -1.16566,1.71558 -0.35736,0.61474 -0.69541,1.26616 -1.03419,1.91914 -0.33345,0.64268 -0.66699,1.28568 -1.01516,1.88477 -0.3445,0.59279 -0.70176,1.13992 -1.08714,1.60392 -0.38123,0.45901 -0.7837,0.82902 -1.22102,1.08324 -0.21641,0.1258 -0.44185,0.22356 -0.67877,0.29002 -0.2356,0.0661 -0.48566,0.10209 -0.7534,0.10238 -0.26705,2.8e-4 -0.51781,-0.0349 -0.75532,-0.10093 -0.23668,-0.0658 -0.46306,-0.16302 -0.68146,-0.28934 -0.43563,-0.25196 -0.84005,-0.62003 -1.22697,-1.08431 -0.38429,-0.46112 -0.74263,-1.00653 -1.09242,-1.60667 -0.34808,-0.59719 -0.68002,-1.23497 -1.01947,-1.88754 -0.33516,-0.64432 -0.67745,-1.30269 -1.03749,-1.92069 -0.3589,-0.61605 -0.74238,-1.2043 -1.16712,-1.71448 -0.42335,-0.50851 -0.89557,-0.94911 -1.43668,-1.26274 -0.27065,-0.15686 -0.55821,-0.28176 -0.86457,-0.36729 -0.30621,-0.0855 -0.62829,-0.13079 -0.96737,-0.13081 -0.3391,0 -0.66141,0.0453 -0.96806,0.13096 -0.30629,0.0855 -0.59399,0.21053 -0.86498,0.36769 -0.54048,0.31345 -1.01287,0.75394 -1.43725,1.26389 -0.42433,0.5099 -0.80794,1.09814 -1.16792,1.71606 -0.36006,0.61805 -0.70216,1.27585 -1.0387,1.92256 -0.339,0.65142 -0.67211,1.29112 -1.02114,1.8894 -0.34968,0.59941 -0.70892,1.14594 -1.0947,1.60816 -0.38704,0.46371 -0.79259,0.83256 -1.23036,1.08483 -0.21887,0.12613 -0.44597,0.22325 -0.68365,0.28877 -0.23804,0.0656 -0.48957,0.10037 -0.75767,0.0994 -0.26813,-9.5e-4 -0.51865,-0.0377 -0.75478,-0.10466 -0.23693,-0.0672 -0.46243,-0.16587 -0.6789,-0.29277 -0.43607,-0.25564 -0.83739,-0.62719 -1.21774,-1.08932 -0.38282,-0.46513 -0.73761,-1.01366 -1.08036,-1.61014 -0.34503,-0.60044 -0.67476,-1.24392 -1.00631,-1.89131 -0.3342,-0.65256 -0.66989,-1.30837 -1.02451,-1.92666 -0.35774,-0.62374 -0.73717,-1.21363 -1.15688,-1.72547 -0.42428,-0.51741 -0.89599,-0.96281 -1.4362,-1.28171 -0.27315,-0.16124 -0.56307,-0.28969 -0.87162,-0.37847 -0.31076,-0.0894 -0.63689,-0.13757 -0.97925,-0.1402 -0.34585,-0.003 -0.67413,0.0412 -0.98596,0.12556 -0.31392,0.085 -0.60793,0.21019 -0.88391,0.36722 -0.5567,0.31674 -1.0398,0.76268 -1.46908,1.26987 -0.43637,0.51555 -0.82893,1.10865 -1.19237,1.72058 -0.36893,0.62118 -0.72159,1.28572 -1.05947,1.92111 -0.35074,0.65958 -0.68598,1.28858 -1.03809,1.87846 -0.35901,0.60145 -0.71994,1.13519 -1.10173,1.58134 -0.39153,0.45753 -0.79006,0.80507 -1.20757,1.03679 -0.21206,0.11769 -0.42863,0.2053 -0.65193,0.26267 -0.22647,0.0582 -0.46365,0.0862 -0.71475,0.081 -0.25094,-0.005 -0.48323,-0.0444 -0.70049,-0.11047 -0.22127,-0.0673 -0.43159,-0.16387 -0.63337,-0.28615 -0.41625,-0.25225 -0.80065,-0.61662 -1.16376,-1.0627 -0.3779,-0.46424 -0.72693,-1.00988 -1.05732,-1.5897 -0.34415,-0.60395 -0.6742,-1.25625 -0.98987,-1.88535 -0.34073,-0.67907 -0.66026,-1.32187 -1.00067,-1.94204 -0.35993,-0.65574 -0.72707,-1.2556 -1.12592,-1.7785 -0.43199,-0.56632 -0.90292,-1.04438 -1.43884,-1.39645 -0.28927,-0.19004 -0.59421,-0.34114 -0.91625,-0.44884 -0.34234,-0.11449 -0.69399,-0.17654 -1.05278,-0.18892 -0.21988,-0.003 -0.43126,0.0349 -0.62957,0.10569 -0.2002,0.0714 -0.37946,0.17347 -0.53813,0.29087 -0.32045,0.23709 -0.58076,0.55443 -0.79472,0.8856 -0.22608,0.34992 -0.4261,0.75551 -0.60524,1.18917 -0.10104,0.24459 -0.19729,0.50266 -0.28916,0.771 -0.0799,0.23334 -0.15706,0.47625 -0.2317,0.72715 -0.33917,1.14013 -0.63607,2.48028 -0.89846,3.90533 -0.2857,1.55162 -0.53935,3.25281 -0.76567,4.98957 -0.50955,3.91029 -0.92941,8.38986 -1.27001,12.41396 -0.39467,4.66292 -0.79217,10.06497 -1.0996,14.18744 -0.38367,5.14494 -0.73092,9.73107 -1.11372,14.15207 -0.37426,4.32223 -0.79365,8.60427 -1.26897,12.27282 -0.22168,1.71092 -0.464,3.35462 -0.72882,4.82897 -0.24424,1.35978 -0.50981,2.58732 -0.79583,3.58171 -0.13342,0.46385 -0.26773,0.86426 -0.40021,1.19279 -0.12779,0.3169 -0.24307,0.53895 -0.33023,0.66552 -0.0395,0.0573 -0.0686,0.0865 -0.073,0.0822 -0.004,-0.004 0.0151,-0.0417 0.0828,-0.10656 0.0662,-0.0633 0.18218,-0.15416 0.3587,-0.23292 0.17874,-0.0798 0.39583,-0.13537 0.63653,-0.14118 0.25261,-0.003 0.49068,0.0412 0.70231,0.11616 0.20503,0.0726 0.36573,0.16702 0.48272,0.25112 0.21004,0.151 0.32484,0.30561 0.33206,0.3142 0.022,0.0262 0.003,-0.009 -0.0358,-0.11252 -0.0382,-0.10193 -0.0869,-0.24511 -0.14465,-0.44612 -0.0945,-0.32916 -0.19806,-0.76061 -0.30732,-1.31611 -0.0197,-0.10028 -0.0395,-0.20395 -0.0593,-0.31105 -0.12525,-0.6766 -0.25003,-1.47764 -0.37351,-2.40991 -0.23922,-1.80599 -0.46638,-4.0495 -0.68221,-6.7362 -0.20704,-2.57723 -0.40107,-5.52951 -0.58484,-8.84552 -0.35046,-6.32382 -0.65377,-13.78603 -0.94161,-22.25371 -0.27391,-8.05762 -0.51633,-16.48093 -0.78007,-25.56204 -0.24425,-8.40992 -0.505,-17.31692 -0.79745,-25.59178 -0.28201,-7.979319 -0.60458,-15.703664 -0.99736,-22.373171 -0.19137,-3.249575 -0.40098,-6.276525 -0.6333,-8.983197 -0.228,-2.656497 -0.48025,-5.032732 -0.76309,-7.022231 -0.13985,-0.983737 -0.28933,-1.888187 -0.45035,-2.694993 -0.15852,-0.7943 -0.33543,-1.530664 -0.53795,-2.172528 -0.10129,-0.321028 -0.21557,-0.639519 -0.34654,-0.942555 -0.12816,-0.296548 -0.28992,-0.619532 -0.49764,-0.931187 -0.19968,-0.299607 -0.50423,-0.683516 -0.95068,-1.008679 -0.23047,-0.167853 -0.51232,-0.329861 -0.84658,-0.449258 -0.33833,-0.120851 -0.7088,-0.190073 -1.09856,-0.188316 -0.49346,0.0021 -0.95775,0.108051 -1.37441,0.286327 -0.40731,0.174274 -0.74286,0.405881 -1.01206,0.64067 -0.26704,0.232908 -0.48544,0.483312 -0.6635,0.721541 -0.17835,0.238611 -0.33117,0.485085 -0.46308,0.725955 -0.25953,0.473912 -0.47445,0.993144 -0.65765,1.519642 -0.18413,0.529165 -0.35085,1.108315 -0.50385,1.723687 -0.30245,1.216482 -0.57,2.650862 -0.81164,4.252148 -0.23964,1.588108 -0.45803,3.36912 -0.65981,5.306744 -0.39741,3.816317 -0.73286,8.26524 -1.03788,13.077244 -0.30022,4.736513 -0.56744,9.76444 -0.83813,14.889437 -0.26405,4.9994 -0.53128,10.08899 -0.82629,14.83432 -0.29157,4.68998 -0.61312,9.09269 -0.99365,12.85772 -0.18839,1.86402 -0.3903,3.56231 -0.60866,5.05659 -0.21786,1.4908 -0.44753,2.7465 -0.68775,3.74549 -0.11921,0.49574 -0.23616,0.90778 -0.34826,1.24129 -0.11401,0.33922 -0.20881,0.55456 -0.27343,0.67793 -0.0291,0.0556 -0.0461,0.0791 -0.0356,0.0656 0.007,-0.009 0.0523,-0.0688 0.1415,-0.14793 0.0931,-0.0826 0.2457,-0.19787 0.4718,-0.29681 0.23409,-0.10243 0.51574,-0.17184 0.82593,-0.1736 0.22833,-5.8e-4 0.44103,0.0446 0.62151,0.11599 0.17374,0.0687 0.2889,0.14995 0.34874,0.19946 0.0607,0.0502 0.0707,0.0705 0.0531,0.0506 -0.0192,-0.0217 -0.0609,-0.0761 -0.11937,-0.17189 -0.12048,-0.19734 -0.27066,-0.5007 -0.44064,-0.93264 -0.16709,-0.42459 -0.33762,-0.93289 -0.5113,-1.52416 -0.34715,-1.18182 -0.67985,-2.60114 -1.01666,-4.19336 -0.33546,-1.58581 -0.65899,-3.26462 -1.00438,-5.00925 -0.33974,-1.71608 -0.6965,-3.47411 -1.08429,-5.13379 -0.38541,-1.64953 -0.81349,-3.25502 -1.30698,-4.67042 -0.24721,-0.70904 -0.51866,-1.39318 -0.82038,-2.0256 -0.29935,-0.62743 -0.64683,-1.24282 -1.05732,-1.79469 -0.40652,-0.54653 -0.92514,-1.09884 -1.58726,-1.52197 -0.33641,-0.21499 -0.71352,-0.39881 -1.13062,-0.52725 -0.41945,-0.12916 -0.8592,-0.19599 -1.31063,-0.19257 -0.46845,0.004 -0.91916,0.0897 -1.34039,0.24479 -0.41533,0.15295 -0.78125,0.36579 -1.09363,0.60125 -0.60989,0.45972 -1.06233,1.03767 -1.40164,1.57873 -0.34576,0.55138 -0.63403,1.16132 -0.88029,1.7785 -0.24867,0.6232 -0.47171,1.2975 -0.67499,1.99645 -0.4058,1.39537 -0.75953,2.9827 -1.08431,4.61429 -0.32611,1.63829 -0.63581,3.38792 -0.94066,5.08392 -0.30963,1.7226 -0.61579,3.39889 -0.94517,4.96332 -0.33216,1.57763 -0.67582,2.982 -1.04824,4.14989 -0.18633,0.58432 -0.37261,1.08632 -0.55781,1.50652 -0.18794,0.4264 -0.3584,0.73104 -0.50161,0.93867 -0.13809,0.2002 -0.23043,0.26611 -0.19369,0.24357 0.0192,-0.0118 0.0687,-0.0408 0.14817,-0.0664 0.082,-0.0264 0.17465,-0.0423 0.26924,-0.0427 0.18738,-0.002 0.35993,0.0339 0.5034,0.0885 0.13839,0.0526 0.22572,0.11347 0.26428,0.1443 0.0367,0.0293 0.0374,0.0382 0.005,0.001 -0.0314,-0.0359 -0.0825,-0.10194 -0.1491,-0.20703 -0.1373,-0.21653 -0.30093,-0.53484 -0.48238,-0.97251 -0.18044,-0.43523 -0.36324,-0.95115 -0.54782,-1.54324 -0.37402,-1.19979 -0.73131,-2.63396 -1.08336,-4.20684 -0.35571,-1.58927 -0.7016,-3.29972 -1.04841,-5.00626 -0.10191,-0.50148 -0.20386,-1.00241 -0.30647,-1.50153 -0.2485,-1.20867 -0.50658,-2.43457 -0.77529,-3.61324 -0.37001,-1.62301 -0.77415,-3.21936 -1.22633,-4.62337 -0.22371,-0.69461 -0.46652,-1.36532 -0.7327,-1.98426 -0.26155,-0.60818 -0.56272,-1.20655 -0.91569,-1.74425 -0.34315,-0.52275 -0.7933,-1.07777 -1.38685,-1.5159 -0.30248,-0.22327 -0.6553,-0.42582 -1.05983,-0.57173 -0.40731,-0.14692 -0.8462,-0.22865 -1.30519,-0.22702 -0.45276,0.002 -0.8878,0.0832 -1.2943,0.22947 -0.40108,0.14439 -0.7539,0.34425 -1.05951,0.56722 -0.59432,0.43358 -1.05072,0.98392 -1.40392,1.51318 -0.35686,0.53472 -0.66344,1.13143 -0.93209,1.74506 -0.26905,0.61456 -0.51599,1.28294 -0.74554,1.98221 -0.45416,1.38349 -0.86413,2.96181 -1.24977,4.60912 -0.38308,1.6364 -0.74908,3.3713 -1.11401,5.09017 -0.36292,1.70941 -0.72402,3.39925 -1.10145,4.97293 -0.37627,1.56884 -0.75958,2.98285 -1.16344,4.16022 -0.20031,0.58395 -0.39852,1.08846 -0.59359,1.51107 -0.19671,0.42612 -0.37346,0.73217 -0.52036,0.93763 -0.14047,0.19647 -0.23478,0.25522 -0.17779,0.21135 0.0285,-0.022 0.0956,-0.0655 0.20175,-0.10398 0.10934,-0.0397 0.23819,-0.0659 0.37605,-0.0686 0.12241,-0.003 0.24494,0.0156 0.35689,0.0502 0.10912,0.0338 0.18415,0.0755 0.22426,0.10082 0.0688,0.0434 0.0173,0.0232 -0.11303,-0.17429 -0.12719,-0.19265 -0.28424,-0.48398 -0.46071,-0.90361 -0.17408,-0.41396 -0.3496,-0.91088 -0.52556,-1.49184 -0.35355,-1.16731 -0.67883,-2.57284 -0.99446,-4.14917 -0.31498,-1.57305 -0.60929,-3.25895 -0.91012,-4.9841 -0.29925,-1.71612 -0.60463,-3.4692 -0.93462,-5.12098 -0.33019,-1.65281 -0.6953,-3.25753 -1.12241,-4.67184 -0.21507,-0.71215 -0.45309,-1.40044 -0.72095,-2.03811 -0.26636,-0.6341 -0.58042,-1.26204 -0.95976,-1.83045 -0.37569,-0.56295 -0.87111,-1.15172 -1.52918,-1.61417 -0.33648,-0.23646 -0.72083,-0.44347 -1.15342,-0.59154 -0.43642,-0.14938 -0.89726,-0.23016 -1.37197,-0.23345 -0.5796,-0.003 -1.1034,0.14624 -1.54254,0.37184 -0.42466,0.21817 -0.74954,0.49595 -0.98846,0.74714 -0.24009,0.25242 -0.42923,0.51567 -0.57789,0.75459 -0.15052,0.24193 -0.27853,0.48966 -0.38841,0.7294 -0.2178,0.47521 -0.40028,0.99809 -0.55774,1.53164 -0.15974,0.54127 -0.30623,1.13655 -0.44217,1.77128 -0.27224,1.27117 -0.51756,2.77344 -0.74278,4.44234 -0.22698,1.68196 -0.43746,3.5629 -0.63523,5.5911 -0.39826,4.08436 -0.750735,8.82679 -1.081928,13.83109 -0.333942,5.04586 -0.653815,10.47797 -0.97389,15.77277 -0.327565,5.4187 -0.657782,10.73622 -1.02124,15.72181 -0.368998,5.06158 -0.765937,9.69079 -1.215974,13.62793 -0.227692,1.99195 -0.466838,3.78761 -0.719535,5.35918 -0.256074,1.59257 -0.520518,2.91984 -0.791013,3.97064 -0.135853,0.52775 -0.267972,0.96505 -0.393567,1.31827 -0.128492,0.36136 -0.23555,0.59313 -0.309397,0.72662 -0.03392,0.0613 -0.05471,0.0888 -0.04685,0.0784 0.0079,-0.0105 0.04461,-0.0605 0.13808,-0.14181 0.09374,-0.0815 0.248949,-0.1962 0.478403,-0.29392 0.2386,-0.10162 0.525394,-0.16952 0.840725,-0.169 0.360319,5.3e-4 0.689949,0.0763 0.971218,0.19229 0.27447,0.11318 0.477972,0.25278 0.622552,0.37301 0.141488,0.11765 0.237287,0.22662 0.294499,0.29869 0.05823,0.0734 0.09275,0.12905 0.107701,0.15447 0.02659,0.0452 0.01539,0.036 -0.0229,-0.0627 -0.03597,-0.0928 -0.08303,-0.23128 -0.138122,-0.42458 -0.111676,-0.39182 -0.232699,-0.9245 -0.358144,-1.60941 -0.12519,-0.68352 -0.248946,-1.48619 -0.370627,-2.40311 -0.246,-1.85374 -0.476794,-4.12305 -0.694078,-6.73226 -0.220093,-2.64294 -0.42515,-5.62015 -0.618001,-8.84591 -0.394013,-6.59054 -0.739272,-14.25778 -1.057053,-22.2586 -0.326385,-8.21744 -0.636303,-17.11827 -0.934243,-25.56848 -0.316564,-8.97843 -0.62227,-17.52747 -0.957296,-25.59821 -0.349284,-8.414204 -0.716504,-15.957878 -1.129246,-22.376692 -0.214215,-3.331388 -0.439176,-6.335336 -0.677967,-8.980932 -0.245914,-2.724517 -0.506787,-5.072475 -0.786678,-7.01099 -0.143475,-0.993694 -0.293336,-1.889579 -0.450961,-2.680523 -0.159427,-0.799981 -0.332359,-1.52104 -0.52446,-2.142476 -0.09783,-0.316484 -0.206074,-0.624919 -0.327715,-0.915779 -0.120666,-0.288529 -0.26992,-0.596999 -0.458096,-0.893399 -0.09631,-0.151696 -0.211602,-0.314181 -0.349295,-0.475944 -0.137768,-0.161848 -0.310633,-0.337911 -0.524094,-0.504042 -0.215739,-0.167903 -0.4853,-0.335165 -0.810848,-0.460744 -0.332957,-0.128434 -0.703283,-0.204745 -1.096639,-0.204016 -0.463239,0.0021 -0.896557,0.101594 -1.28287,0.266505 -0.382878,0.163446 -0.693505,0.378668 -0.943463,0.597649 -0.249466,0.218552 -0.450564,0.452172 -0.611877,0.670852 -0.164047,0.222387 -0.302327,0.450262 -0.41967,0.669366 -0.235685,0.440076 -0.425058,0.916775 -0.581683,1.384402 -0.162782,0.48601 -0.306443,1.011527 -0.434964,1.55536 -0.266729,1.128659 -0.491592,2.43659 -0.685112,3.816545 -0.100847,0.719116 -0.194776,1.469417 -0.28252,2.23927 -0.09378,0.822791 -0.180115,1.666367 -0.259733,2.513946 -0.356812,3.798479 -0.614419,8.070548 -0.801738,11.706959 -0.238826,4.636307 -0.427154,9.529556 -0.570164,13.331557 -0.177089,4.707986 -0.335724,9.156686 -0.533358,13.294486 -0.179647,3.76118 -0.420218,7.88365 -0.779723,11.55616 -0.153684,1.56995 -0.33696,3.13907 -0.556941,4.57989 -0.193906,1.27004 -0.419985,2.46413 -0.683209,3.46577 -0.120112,0.45706 -0.246447,0.86819 -0.378552,1.22408 -0.125631,0.33844 -0.249938,0.60916 -0.36953,0.8166 -0.117511,0.20383 -0.202914,0.29994 -0.254076,0.35471 -0.02096,0.0224 -0.02666,0.0288 -0.0185,0.032 0.0074,0.003 0.02678,0.004 0.04151,0.009 -0.16412,0.0198 -0.333222,0.0162 -0.508106,-0.0182 -0.159138,-0.0313 -0.329119,-0.0892 -0.511194,-0.1848 -0.330042,-0.17329 -0.688361,-0.46417 -1.080104,-0.919 -0.349485,-0.40576 -0.697609,-0.90848 -1.06952,-1.52181 -0.345125,-0.56916 -0.672126,-1.16763 -1.044804,-1.84898 -0.332076,-0.60712 -0.701637,-1.28215 -1.085992,-1.90911 -0.365682,-0.59651 -0.772832,-1.1969 -1.229171,-1.72326 -0.434351,-0.501 -0.932733,-0.95801 -1.511891,-1.28512 -0.281441,-0.15897 -0.582963,-0.28784 -0.906141,-0.37588 -0.31696,-0.0863 -0.651438,-0.13248 -1.004254,-0.13083 -0.350322,0.002 -0.686152,0.0497 -1.007824,0.14145 -0.315758,0.0901 -0.613261,0.22096 -0.894216,0.38642 -0.547337,0.32234 -1.025203,0.77129 -1.458685,1.30007 -0.420188,0.51256 -0.801312,1.10388 -1.163923,1.73612 -0.354385,0.6179 -0.688754,1.27058 -1.027513,1.93167 -0.32881,0.64168 -0.661213,1.29018 -1.007764,1.8931 -0.340404,0.59223 -0.695387,1.14225 -1.079353,1.60933 -0.37692,0.45851 -0.776327,0.83044 -1.211624,1.08663 -0.214255,0.1261 -0.437936,0.22461 -0.673516,0.29192 -0.233467,0.0667 -0.481976,0.10371 -0.748861,0.10492 -0.264038,0.001 -0.512556,-0.0326 -0.74856,-0.0973 -0.23444,-0.0642 -0.459361,-0.15972 -0.677002,-0.28456 -0.43232,-0.248 -0.835659,-0.61177 -1.223391,-1.07438 -0.382933,-0.45688 -0.740901,-0.99827 -1.091751,-1.59722 -0.34754,-0.59329 -0.67859,-1.22629 -1.019182,-1.87829 -0.333733,-0.63887 -0.676601,-1.29593 -1.036594,-1.91185 -0.357433,-0.61153 -0.740419,-1.19785 -1.164991,-1.70669 -0.421302,-0.50491 -0.892232,-0.94415 -1.432662,-1.25695 -0.269463,-0.15597 -0.556043,-0.2804 -0.861656,-0.36564 -0.304796,-0.085 -0.625705,-0.13025 -0.963919,-0.13032 -0.337996,-6e-5 -0.659653,0.0449 -0.966052,0.13031 -0.305397,0.0851 -0.592619,0.20952 -0.863508,0.36628 -0.538732,0.31176 -1.010685,0.75015 -1.435853,1.25967 -0.423447,0.50747 -0.80689,1.09329 -1.167809,1.71082 -0.359793,0.61561 -0.7014,1.27012 -1.039103,1.91683 -0.338182,0.64761 -0.672056,1.28662 -1.021467,1.88365 -0.348942,0.59623 -0.708206,1.14149 -1.094278,1.60284 -0.385881,0.46112 -0.790727,0.82892 -1.228105,1.08052 -0.218035,0.12542 -0.444395,0.22211 -0.681417,0.28738 -0.236914,0.0652 -0.487438,0.0999 -0.754684,0.099 -0.267136,-9.2e-4 -0.516996,-0.0374 -0.752773,-0.10419 -0.236107,-0.0669 -0.461137,-0.16505 -0.67748,-0.2916 -0.434535,-0.2542 -0.83566,-0.62396 -1.217117,-1.08582 -0.382421,-0.46304 -0.737688,-1.00956 -1.082215,-1.60617 -0.345593,-0.59846 -0.675751,-1.23907 -1.009717,-1.88721 -0.33438,-0.64895 -0.672294,-1.30489 -1.028836,-1.92242 -0.358284,-0.62054 -0.739475,-1.20959 -1.161508,-1.72071 -0.424629,-0.51425 -0.897665,-0.95829 -1.439834,-1.27546 -0.273131,-0.15979 -0.563186,-0.287 -0.872003,-0.3745 -0.310203,-0.0879 -0.635895,-0.13473 -0.977996,-0.13598 -0.344214,-0.001 -0.671076,0.0436 -0.981673,0.12904 -0.311783,0.0858 -0.60394,0.21152 -0.878332,0.36917 -0.551177,0.31668 -1.029896,0.76158 -1.456245,1.27012 -0.430737,0.51378 -0.818348,1.10509 -1.178539,1.719 -0.363617,0.61974 -0.709911,1.28123 -1.044889,1.92077 -0.343661,0.65612 -0.675396,1.28911 -1.023584,1.88286 -0.352404,0.60095 -0.709916,1.141 -1.090826,1.59582 -0.386947,0.46202 -0.786615,0.82214 -1.21216,1.06716 -0.214749,0.12366 -0.436106,0.21802 -0.666371,0.28166 -0.232264,0.0642 -0.476903,0.0981 -0.737064,0.0975 -0.262871,-5.4e-4 -0.50728,-0.036 -0.736717,-0.10027 -0.23207,-0.065 -0.452642,-0.16047 -0.664242,-0.28302 -0.431643,-0.24999 -0.829125,-0.61456 -1.205461,-1.06537 -0.385319,-0.46156 -0.742171,-1.00598 -1.0843103,-1.59124 -0.3500115,-0.59873 -0.6869854,-1.24452 -1.0183396,-1.8792 -0.3450343,-0.66088 -0.6827537,-1.30729 -1.0414511,-1.9208 -0.3697953,-0.63249 -0.7554324,-1.21848 -1.1782253,-1.72534 -0.4397387,-0.52716 -0.9202749,-0.96926 -1.462062,-1.28451 -0.2802091,-0.16305 -0.5746244,-0.29085 -0.8846641,-0.37869 -0.3179199,-0.0901 -0.6477531,-0.13684 -0.9897619,-0.13874 -0.7107239,-0.004 -1.3994135,0.16206 -2.0413783,0.41984 -0.68353537,0.27447 -1.33369424,0.66083 -1.92959216,1.0889 -1.33425764,0.95847 -2.51525634,2.2122 -3.37492014,3.2333 -1.1271134,1.33876 -1.9582153,2.58059 -2.3620935,3.22194 -0.4477094,0.71095 -0.6254104,1.07846 -0.6821876,1.24133 -0.1041136,0.29865 0.030961,0.37229 0.057336,0.38776 z"
       id="path61225"
       sodipodi:nodetypes="csssaaaassssssssssssaaaaaaac"
       transform="matrix(-1.0629316,0,0,1.0629316,272.58426,-8.4099614)" />
  </g>
</svg>
